<?xml version="1.0" encoding="utf-8"?>
<!-- Generator: Adobe Illustrator 18.1.1, SVG Export Plug-In . SVG Version: 6.00 Build 0)  -->
<svg version="1.1" id="objects" xmlns="http://www.w3.org/2000/svg" xmlns:xlink="http://www.w3.org/1999/xlink" x="0px" y="0px"
	 viewBox="0 175.8 419.5 419.5" enable-background="new 0 175.8 419.5 419.5" xml:space="preserve">
<radialGradient id="SVGID_1_" cx="13.5403" cy="451.7987" r="247.7585" gradientTransform="matrix(2.1534 0 0 -2.1534 0 1545.5518)" gradientUnits="userSpaceOnUse">
	<stop  offset="0" style="stop-color:#FEC053"/>
	<stop  offset="0.3273" style="stop-color:#F2203E"/>
	<stop  offset="0.6485" style="stop-color:#B729A8"/>
	<stop  offset="1" style="stop-color:#5342D6"/>
</radialGradient>
<path fill="url(#SVGID_1_)" d="M419.4,549.4c0,25.4-20.5,45.9-45.9,45.9H45.9C20.5,595.3,0,574.8,0,549.4V221.6
	c0-25.4,20.5-45.9,45.9-45.9h327.7c25.4,0,45.9,20.5,45.9,45.9L419.4,549.4L419.4,549.4z"/>
<g>
	<path fill="#F1F2F2" d="M294.2,533.1H125.6c-34.9,0-63.1-28.4-63.1-63.1V301.3c0-34.9,28.4-63.1,63.1-63.1h168.6
		c34.9,0,63.1,28.4,63.1,63.1v168.6C357.2,504.9,329,533.1,294.2,533.1z M125.6,272.5c-15.7,0-28.6,12.9-28.6,28.6v168.6
		c0,15.7,12.9,28.6,28.6,28.6h168.6c15.7,0,28.6-12.9,28.6-28.6V301.3c0-15.7-12.9-28.6-28.6-28.6H125.6V272.5z"/>
</g>
<g>
	<path fill="#F1F2F2" d="M209.8,467.2c-45,0-81.4-36.6-81.4-81.4s36.6-81.4,81.4-81.4c45,0,81.4,36.6,81.4,81.4
		S254.8,467.2,209.8,467.2z M209.8,338.6c-25.8,0-46.9,21.1-46.9,46.9s21.1,46.9,46.9,46.9s46.9-21.1,46.9-46.9
		C256.9,359.7,235.8,338.6,209.8,338.6z"/>
</g>
<circle fill="#F1F2F2" cx="293.3" cy="306.7" r="14.6"/>
</svg>
