<?xml version="1.0" encoding="utf-8"?>
<!-- Generator: Adobe Illustrator 19.1.0, SVG Export Plug-In . SVG Version: 6.00 Build 0)  -->
<svg version="1.2" baseProfile="tiny" id="Layer_2" xmlns="http://www.w3.org/2000/svg" xmlns:xlink="http://www.w3.org/1999/xlink"
	 x="0px" y="0px" viewBox="0 0 100 100" xml:space="preserve">
<path fill="#010101" d="M88.7,24.4H2.1c-1.1,0-2.1,0.7-2.1,1.8v61.5c0,1.1,1.1,2.1,2.1,2.1h86.5c1.1,0,1.7-1,1.7-2.1V26.1
	C90.4,25.1,89.7,24.4,88.7,24.4z M86.5,28.2v39.9L74.5,57.4c-0.8-0.7-1.9-0.6-2.6,0.1L57.8,71.5L32.3,47.8c-0.8-0.7-2-0.7-2.8,0.1
	L3.8,73.4V28.2H86.5z M3.8,85.9v-7l27.1-27l25.6,23.7c0.8,0.7,2,0.7,2.7-0.1l14-14.1l13.3,11.7v12.7L3.8,85.9L3.8,85.9z"/>
<path fill="#010101" d="M98.3,12.8H11.7c-1.1,0-2.1,0.7-2.1,1.8v7.8h3.8v-5.8h82.7v57.7h-3.8v3.8h6c1.1,0,1.7-1,1.7-2.1V14.6
	C100,13.5,99.3,12.8,98.3,12.8z"/>
<path fill="#010101" d="M59.8,56.9c5.3,0,9.6-4.3,9.6-9.6s-4.3-9.6-9.6-9.6s-9.6,4.3-9.6,9.6C50.2,52.6,54.5,56.9,59.8,56.9z
	 M59.8,41.5c3.2,0,5.8,2.6,5.8,5.8c0,3.2-2.6,5.8-5.8,5.8c-3.2,0-5.8-2.6-5.8-5.8C54,44.1,56.6,41.5,59.8,41.5z"/>
<g>
</g>
<g>
</g>
<g>
</g>
<g>
</g>
<g>
</g>
<g>
</g>
</svg>
