<?xml version="1.0" encoding="utf-8"?>
<!-- Generator: Adobe Illustrator 19.1.0, SVG Export Plug-In . SVG Version: 6.00 Build 0)  -->
<svg version="1.2" baseProfile="tiny" id="Layer_3" xmlns="http://www.w3.org/2000/svg" xmlns:xlink="http://www.w3.org/1999/xlink"
	 x="0px" y="0px" viewBox="0 0 100 100" xml:space="preserve">
<g>
	<path fill="#010101" d="M91.7,75.8l-15.9-7.9c-1.5-0.8-2.5-2.3-2.5-4v-5.6c0.4-0.4,0.8-1,1.3-1.7c2.1-2.9,3.8-6.3,5-9.6
		c2.3-1,4-3.3,4-6.1v-6.7c0-1.7-0.6-3.1-1.7-4.4v-9c0-0.8,0.4-6.5-3.5-10.9c-3.3-4-9-5.8-16.5-5.8S48.7,6.1,45.3,10
		C43,12.7,42.2,15.9,42,18c-2.9-1.5-6.3-2.3-10-2.3c-17.3,0-18.4,14.8-18.4,15v7.7c-1,1.3-1.7,2.5-1.7,4v5.8c0,1.9,0.8,3.5,2.1,4.6
		c1.5,5.2,4.8,9.2,6.1,10.4v4.6c0,1.3-0.6,2.5-1.9,3.1L6.7,78.1c-4.2,2.3-6.9,6.7-6.9,11.7V96H100v-6.7
		C100,83.5,96.9,78.3,91.7,75.8L91.7,75.8z M23.2,88.9v3.8h-20v-2.9c0-3.5,1.9-6.9,5.2-8.8l11.1-6.9c2.3-1.3,3.5-3.5,3.5-6.1V62
		l-0.4-0.6c0,0-4.4-4.2-5.8-10l-0.2-0.6l-0.6-0.4c-0.8-0.4-1.3-1.3-1.3-2.3v-5.8c0-0.6,0.4-1.3,1-1.9l0.6-0.4v-9
		c0-0.4,0.8-11.7,15-11.7c4,0,7.3,0.8,10,2.7v7.9c-1,1.3-1.7,2.7-1.7,4.4v6.7c0,0.4,0,1,0.2,1.5c0,0.2,0.2,0.4,0.2,0.6
		s0.2,0.6,0.2,0.8l0,0c0.4,0.8,1,1.7,1.9,2.3l0,0c0,0.4,0.2,0.8,0.4,1l0.2,0.4v0.2c0,0.2,0.2,0.4,0.2,0.6s0.2,0.6,0.4,0.8
		c0,0.2,0.2,0.2,0.2,0.4c0.2,0.4,0.2,0.6,0.4,1v0.2v0.2c0,0,0,0.2,0.2,0.2c0.2,0.4,0.4,0.6,0.4,1c0,0,0,0,0,0.2
		c0.2,0.2,0.2,0.4,0.2,0.6c0.2,0.4,0.4,0.6,0.6,1c0,0.2,0.2,0.2,0.2,0.4c0.2,0.4,0.4,0.8,0.6,1c0,0,0,0.2,0.2,0.2
		c0.4,0.6,0.8,1,1,1.5l0.2,0.2c0,0,0,0.2,0.2,0.2v5.4c0,1.7-0.8,3.1-2.3,4l-4.4,2.5h-0.8l0,0.8l-9.4,5.2
		C26.3,78.3,23.2,83.3,23.2,88.9L23.2,88.9z M96.7,92.7H26.5v-3.8c0-4.4,2.3-8.1,6.1-10.2l14.8-8.1c2.5-1.5,4-4,4-6.9V57L51,56.6
		l0,0c0,0-0.2-0.2-0.2-0.4l0,0c0-0.2-0.2-0.2-0.2-0.4l0,0c-0.2-0.4-0.6-0.8-0.8-1.3l0,0c-0.2-0.2-0.4-0.6-0.4-0.8l0,0
		c-0.4-0.6-0.8-1.3-1.3-2.1l0,0c-0.2-0.4-0.4-0.8-0.6-1.3v-0.2c0-0.2-0.2-0.4-0.2-0.6v-0.2c0-0.2-0.2-0.4-0.2-0.6
		c-0.2-0.4-0.4-0.8-0.4-1.5V47c0,0,0,0,0-0.2c-0.2-0.6-0.2-1-0.4-1.7L46,44.5L45.3,44c-1-0.6-1.5-1.7-1.5-2.7v-7.1
		c0-0.8,0.4-1.9,1-2.5l0.6-0.4V20.2l0,0c0-1.3,0-4.8,2.7-7.9s7.5-4.8,14-4.8s11.3,1.7,14,4.8c3.3,3.8,2.7,8.3,2.7,8.3v10.6l0.6,0.4
		c0.6,0.6,1,1.5,1,2.5v6.7c0,1.5-1,2.7-2.3,3.1l-0.8,0.2l-0.2,0.8c-1,3.5-2.7,6.7-4.8,9.6c-0.4,0.6-1,1.3-1.5,1.9L70.6,57v6.9
		c0,2.9,1.7,5.6,4.4,6.9l15.9,7.9c4,2.1,6.5,6.1,6.5,10.4v3.5H96.7z"/>
</g>
<g>
</g>
<g>
</g>
<g>
</g>
<g>
</g>
<g>
</g>
<g>
</g>
</svg>
