<?xml version="1.0" encoding="utf-8"?>
<!-- Generator: Adobe Illustrator 19.1.0, SVG Export Plug-In . SVG Version: 6.00 Build 0)  -->
<svg version="1.2" baseProfile="tiny" id="Layer_1" xmlns="http://www.w3.org/2000/svg" xmlns:xlink="http://www.w3.org/1999/xlink"
	 x="0px" y="0px" viewBox="0 0 100 100" xml:space="preserve">
<g>
	<path fill="#010101" d="M55.3,51.5c14.2,0,25.8-11.6,25.8-25.8S69.5,0,55.3,0c0,0-0.1,0-0.2,0H34.1l0,0c-2.5,0-4.5,2-4.5,4.5v56.1
		H25c-2.5,0-4.5,2-4.5,4.5c0,2.5,2,4.5,4.5,4.5h4.5v25.8c0,2.5,2,4.5,4.5,4.5s4.5-2,4.5-4.5V69.7h16.7c2.5,0,4.5-2,4.5-4.5
		c0-2.5-2-4.5-4.5-4.5H38.6v-9.1H55.3z M55.3,9.1c0,0,0.1,0,0.2,0C64.6,9.2,72,16.6,72,25.8c0,9.2-7.5,16.7-16.7,16.7H38.6V9.1
		L55.3,9.1L55.3,9.1z"/>
</g>
<g>
</g>
<g>
</g>
<g>
</g>
<g>
</g>
<g>
</g>
<g>
</g>
</svg>
