<?xml version="1.0" encoding="utf-8"?>
<!-- Generator: Adobe Illustrator 19.0.0, SVG Export Plug-In . SVG Version: 6.00 Build 0)  -->
<svg version="1.1" id="Layer_1" xmlns="http://www.w3.org/2000/svg" xmlns:xlink="http://www.w3.org/1999/xlink" x="0px" y="0px"
	 viewBox="-204 33 80 80" style="enable-background:new -204 33 80 80;" xml:space="preserve">
<g>
	<g>
		<rect x="-140.4" y="46.1" width="5.4" height="20.7"/>
		<rect x="-140.4" y="78.9" width="5.4" height="20.7"/>
		<rect x="-153.5" y="78.9" width="9.9" height="20.7"/>
		<rect x="-162.3" y="78.9" width="5.4" height="20.7"/>
		<rect x="-171" y="78.9" width="5.4" height="20.7"/>
		<rect x="-184.1" y="78.9" width="9.9" height="20.7"/>
		<rect x="-192.9" y="78.9" width="5.4" height="20.7"/>
		<path d="M-128.3,72.9c0,1.6-1.2,2.8-2.8,2.8h-65.7c-1.6,0-2.8-1.2-2.8-2.8s1.2-2.8,2.8-2.8h65.7
			C-129.5,70.2-128.3,71.4-128.3,72.9z"/>
		<rect x="-153.5" y="46.1" width="9.9" height="20.7"/>
		<rect x="-162.3" y="46.1" width="5.4" height="20.7"/>
		<rect x="-171" y="46.1" width="5.4" height="20.7"/>
		<rect x="-184.1" y="46.1" width="9.9" height="20.7"/>
		<rect x="-192.9" y="46.1" width="5.4" height="20.7"/>
		<path d="M-124,42.3v11.5h-5.4V42.3c0-2.1-1.7-3.9-3.9-3.9h-11.5V33h11.5C-128.2,33-124,37.2-124,42.3z"/>
		<path d="M-124,92.1v11.5c0,5.1-4.2,9.3-9.3,9.3h-11.5v-5.4h11.5c2.1,0,3.9-1.7,3.9-3.9V92.1H-124z"/>
		<path d="M-183.1,107.5v5.4h-11.5c-5.1,0-9.3-4.2-9.3-9.3V92.1h5.4v11.5c0,2.1,1.7,3.9,3.9,3.9h11.5V107.5z"/>
		<path d="M-183.1,33v5.4h-11.5c-2.1,0-3.9,1.7-3.9,3.9v11.5h-5.4V42.3c0-5.1,4.2-9.3,9.3-9.3H-183.1z"/>
	</g>
</g>
</svg>
