<?xml version="1.0" encoding="utf-8"?>
<!-- Generator: Adobe Illustrator 19.0.0, SVG Export Plug-In . SVG Version: 6.00 Build 0)  -->
<svg version="1.1" id="Layer_1" xmlns="http://www.w3.org/2000/svg" xmlns:xlink="http://www.w3.org/1999/xlink" x="0px" y="0px"
	 viewBox="-212 33 80 80" style="enable-background:new -212 33 80 80;" xml:space="preserve">
<g>
	<ellipse cx="-182" cy="96.3" rx="4.1" ry="4.3"/>
	<path d="M-207,101.3v-15h33.4v-5H-207V44.6c0-2.8,2.3-5,5-5h40c2.8,0,5,2.3,5,5v3.4h5v-3.4c0-5.5-4.5-10-10-10h-40
		c-5.5,0-10,4.5-10,10v56.6c0,5.5,4.5,10,10,10h30v-5h-30C-204.8,106.3-207,104.1-207,101.3z"/>
	<path d="M-140.4,51.3h-20c-4.6,0-8.4,3.8-8.4,8.4v43.4c0,4.6,3.8,8.4,8.4,8.4h20c4.6,0,8.4-3.8,8.4-8.4V59.6
		C-132,55.1-135.8,51.3-140.4,51.3z M-160.4,56.3h20c1.9,0,3.4,1.5,3.4,3.4v6.6h-26.6v-6.6C-163.6,57.8-162.1,56.3-160.4,56.3z
		 M-137,71.3v20h-26.6v-20H-137z M-140.4,106.3h-20c-1.9,0-3.4-1.5-3.4-3.4v-6.6h26.6v6.6C-137,104.8-138.5,106.3-140.4,106.3z"/>
</g>
</svg>
