<?xml version="1.0" encoding="utf-8"?>
<!-- Generator: Adobe Illustrator 19.0.0, SVG Export Plug-In . SVG Version: 6.00 Build 0)  -->
<svg version="1.1" id="Layer_1" xmlns="http://www.w3.org/2000/svg" xmlns:xlink="http://www.w3.org/1999/xlink" x="0px" y="0px"
	 viewBox="-212 33 80 80" style="enable-background:new -212 33 80 80;" xml:space="preserve">
<style type="text/css">
	.st0{fill:#1D1D1B;}
</style>
<g>
	<path class="st0" d="M-139.5,45.1h-65c-4.1,0-7.5,3.4-7.5,7.5v40.8c0,4.1,3.4,7.5,7.5,7.5h65c4.1,0,7.5-3.4,7.5-7.5V52.6
		C-132,48.4-135.4,45.1-139.5,45.1z M-140.7,50.1L-172,72.6l-31.3-22.6C-203.3,50.1-140.7,50.1-140.7,50.1z M-139.5,95.9h-65
		c-1.4,0-2.5-1.1-2.5-2.5V53.6l33.5,24.2c0.4,0.3,0.9,0.5,1.5,0.5s1-0.2,1.5-0.5l33.5-24.2v39.9C-137,94.8-138.1,95.9-139.5,95.9z"
		/>
</g>
</svg>
