<?xml version="1.0" encoding="utf-8"?>
<!-- Generator: Adobe Illustrator 19.0.0, SVG Export Plug-In . SVG Version: 6.00 Build 0)  -->
<svg version="1.1" id="Layer_1" xmlns="http://www.w3.org/2000/svg" xmlns:xlink="http://www.w3.org/1999/xlink" x="0px" y="0px"
	 viewBox="87 -78 300 300" style="enable-background:new 87 -78 300 300;" xml:space="preserve">
<style type="text/css">
	.st0{fill:#231F20;}
</style>
<g>
	<g>
		<path class="st0" d="M307.9-12c-13.1,0-25.4,3.7-35.6,10.4v-61.3c0-8.3-6.9-15.2-15.2-15.2l0,0c-8.3,0-15.2,6.9-15.2,15.2V54.1
			c0,36.5,29.6,66,66.2,66c36.5,0,66.2-29.6,66.2-66C374,17.6,344.4-12,307.9-12z M307.9,89.7c-19.6,0-35.6-15.8-35.6-35.4
			c0,0,0,0,0-0.2v-0.2c0.2-19.6,16-35.4,35.6-35.4s35.6,16,35.6,35.6S327.5,89.7,307.9,89.7z"/>
	</g>
	<path class="st0" d="M208.1,105.1c14.6-12.1,24-30.4,24-50.8c0-36.5-29.6-66-66.3-66c-36.7-0.2-66.3,29.4-66.3,66
		c0,36.5,29.6,66,66.3,66h0.2c19.6,0,35.4,16,35.4,35.6s-16,35.6-35.6,35.6s-35.6-16-35.6-35.6c0-8.3-6.9-15.2-15.2-15.2
		s-15.4,6.7-15.4,15.2l0,0c0,36.5,29.6,66,66.3,66c36.5,0,66.3-29.6,66.3-66C231.9,135.5,222.7,117.2,208.1,105.1z M130.2,54.3
		c0-19.6,16-35.6,35.6-35.6s35.6,15.8,35.6,35.6c0,19.6-15.8,35.4-35.4,35.6h-0.2l0,0l0,0C146.1,89.7,130.2,73.9,130.2,54.3z"/>
</g>
</svg>
