<?xml version="1.0" encoding="utf-8"?>
<!-- Generator: Adobe Illustrator 19.0.0, SVG Export Plug-In . SVG Version: 6.00 Build 0)  -->
<svg version="1.1" id="Capa_1" xmlns="http://www.w3.org/2000/svg" xmlns:xlink="http://www.w3.org/1999/xlink" x="0px" y="0px"
	 viewBox="-212 33 80 80" style="enable-background:new -212 33 80 80;" xml:space="preserve">
<path d="M-138.5,53.9h-11l1.6-1c3.3-2,5.1-5.3,5.1-8.8c0-5.9-5.4-10.7-12.2-10.7c-5.8,0-12.8,10.3-16.4,16.4l-0.5,0.8l-0.5-0.8
	c-3.6-6.1-10.7-16.4-16.4-16.4c-6.6,0-12.2,4.8-12.2,10.7c0,3.4,1.9,6.6,5.1,8.8l1.6,1h-11c-3.8,0-6.8,3-6.8,6.8v11.7
	c0,2.6,1.5,4.9,3.8,6.1l0.3,0.1v27.1c0,3.8,3,6.8,6.8,6.8h58.9c3.8,0,6.8-3,6.8-6.8V78.4l0.3-0.1c2-1.3,3.3-3.4,3.3-5.8V60.8
	c0-1.8-0.8-3.5-2-4.8C-135,54.7-136.6,53.9-138.5,53.9z M-195.2,44.2c0-2.8,3-5.1,6.4-5.1h0.1c1.9,0.4,5.9,5.3,8.8,9.3l0.6,0.9h-9.4
	C-192.2,49.3-195.2,46.9-195.2,44.2z M-206.4,72.5V60.8c0-0.6,0.5-1.3,1.3-1.3h30.5v14.2h-30.5C-205.7,73.6-206.4,73.1-206.4,72.5z
	 M-174.6,107h-26.5l0,0c-0.4,0-0.6-0.1-0.9-0.4c-0.3-0.3-0.4-0.5-0.4-0.9V79.3h27.6V107H-174.6z M-163.6,48.4c2.8-4,6.8-8.9,8.7-9.3
	h0.1c3.5,0,6.5,2.4,6.5,5.1c0,2.8-3,5.1-6.5,5.1h-9.4L-163.6,48.4z M-140.8,105.7c0,0.6-0.5,1.3-1.3,1.3h-27V79.3h28.2V105.7z
	 M-137.3,72.5c0,0.6-0.5,1.3-1.3,1.3H-169V59.6h30.5c0.6,0,1.3,0.5,1.3,1.3V72.5z"/>
</svg>
