<?xml version="1.0" encoding="utf-8"?>
<!-- Generator: Adobe Illustrator 19.0.0, SVG Export Plug-In . SVG Version: 6.00 Build 0)  -->
<svg version="1.1" id="Layer_1" xmlns="http://www.w3.org/2000/svg" xmlns:xlink="http://www.w3.org/1999/xlink" x="0px" y="0px"
	 viewBox="0 0 474 144" style="enable-background:new 0 0 474 144;" width="160px" height="52px" xml:space="preserve" fill="#fff">
<g>
	<path class="st0" d="M168.6,46.4c9.4,0,17.1,7.7,17.1,17.1s-7.7,17.1-17.1,17.1s-17.1-7.7-17.1-17.1S159.2,46.4,168.6,46.4
		 M168.6,31.7c-17.5,0-31.8,14.2-31.8,31.7s14.2,31.7,31.8,31.7s31.8-14.2,31.8-31.7S186.1,31.7,168.6,31.7L168.6,31.7z"/>
	<path class="st0" d="M100.2,46.4c9.4,0,17.1,7.7,17.1,17.1s-7.7,17.1-17.1,17.1s-17.1-7.7-17.1-17.1S90.7,46.4,100.2,46.4
		 M100.2,31.7c-17.5,0-31.8,14.2-31.8,31.7s14.2,31.7,31.8,31.7s31.8-14.2,31.8-31.7S117.7,31.7,100.2,31.7L100.2,31.7z"/>
	<path class="st0" d="M378.4,46.4c9.4,0,17.1,7.7,17.1,17.1s-7.7,17.1-17.1,17.1c-9.4,0-17.1-7.7-17.1-17.1S368.9,46.4,378.4,46.4
		 M378.4,31.7c-17.5,0-31.8,14.2-31.8,31.7s14.2,31.7,31.8,31.7c17.5,0,31.8-14.2,31.8-31.7S395.9,31.7,378.4,31.7L378.4,31.7z"/>
	<g>
		<path class="st0" d="M261.4,0c-4,0-7.3,3.3-7.3,7.3v29.4c-4.9-3.2-10.8-5-17.1-5c-17.5,0-31.8,14.2-31.8,31.7
			c0,17.5,14.2,31.7,31.8,31.7c17.5,0,31.8-14.2,31.8-31.7V7.3C268.8,3.3,265.5,0,261.4,0z M237,80.5c-9.4,0-17.1-7.7-17.1-17.1
			s7.7-17.1,17.1-17.1c9.4,0,17,7.6,17.1,17v0.1c0,0,0,0,0,0.1C254.1,72.9,246.4,80.5,237,80.5z"/>
		<path class="st0" d="M310,31.7c-6.3,0-12.2,1.8-17.1,5V7.3c0-4-3.3-7.3-7.3-7.3h0c-4,0-7.3,3.3-7.3,7.3v56.1
			c0,17.5,14.2,31.7,31.8,31.7c17.5,0,31.8-14.2,31.8-31.7C341.7,45.9,327.5,31.7,310,31.7z M310,80.5c-9.4,0-17.1-7.6-17.1-17
			c0,0,0,0,0-0.1v-0.1c0.1-9.4,7.7-17,17.1-17c9.4,0,17.1,7.7,17.1,17.1S319.4,80.5,310,80.5z"/>
	</g>
	<path id="XMLID_3_" class="st0" d="M452.5,63.5l19.4-19.2c2.9-2.8,2.9-7.5,0-10.4c-2.9-2.8-7.5-2.8-10.4,0l-19.4,19.3l-19.4-19.3
		c-2.9-2.8-7.5-2.8-10.4,0s-2.9,7.5,0,10.4l19.4,19.2l-19.4,19.2c-2.9,2.8-2.9,7.5,0,10.4c2.9,2.8,7.5,2.8,10.4,0l19.4-19.3
		l19.4,19.3c2.9,2.8,7.5,2.8,10.4,0c2.9-2.8,2.9-7.5,0-10.4L452.5,63.5z"/>
	<path class="st0" d="M52.1,87.9c7-5.8,11.5-14.6,11.5-24.4c0-17.5-14.2-31.7-31.8-31.7C14.2,31.7,0,45.9,0,63.5
		C0,81,14.2,95.2,31.8,95.2c0,0,0.1,0,0.1,0c9.4,0,17,7.7,17,17.1c0,9.4-7.7,17.1-17.1,17.1s-17.1-7.7-17.1-17.1
		c0-4-3.3-7.3-7.3-7.3S0,108.2,0,112.3h0C0,129.8,14.2,144,31.8,144c17.5,0,31.8-14.2,31.8-31.7C63.5,102.5,59.1,93.7,52.1,87.9z
		 M14.7,63.5c0-9.4,7.7-17.1,17.1-17.1S48.9,54,48.9,63.5c0,9.4-7.6,17-17,17.1c0,0-0.1,0-0.1,0v0h0C22.3,80.5,14.7,72.9,14.7,63.5z
		"/>
</g>
</svg>
