<?xml version="1.0" encoding="utf-8"?>
<!-- Generator: Adobe Illustrator 19.0.0, SVG Export Plug-In . SVG Version: 6.00 Build 0)  -->
<svg version="1.1" id="Capa_1" xmlns="http://www.w3.org/2000/svg" xmlns:xlink="http://www.w3.org/1999/xlink" x="0px" y="0px"
	 viewBox="171.6 12.4 120 120" style="enable-background:new 171.6 12.4 120 120;" xml:space="preserve">
<g>
	<g>
		<path d="M288.5,43.5L265,13.6c-0.6-0.7-1.5-1.2-2.4-1.2h-61.8c-1,0-1.8,0.4-2.4,1.2l-23.6,29.9c-0.4,0.5-0.7,1.2-0.7,1.9v84
			c0,1.7,1.4,3.1,3.1,3.1h108.9c1.7,0,3.1-1.4,3.1-3.1v-84C289.2,44.7,288.9,44,288.5,43.5z M280.1,42.8h-45.4V18.6H261L280.1,42.8z
			 M202.2,18.6h26.4v24.2h-45.4L202.2,18.6z M180.2,126.2V48.9H283v77.3H180.2L180.2,126.2z"/>
		<path d="M246.2,73.8l-20.7,20.7l-8.6-8.6c-1.2-1.2-3.2-1.2-4.4,0c-1.2,1.2-1.2,3.2,0,4.4l10.8,10.8c0.6,0.6,1.4,0.9,2.2,0.9
			s1.6-0.3,2.2-0.9l22.8-22.8c1.2-1.2,1.2-3.2,0-4.4C249.4,72.6,247.4,72.6,246.2,73.8z"/>
	</g>
</g>
</svg>
